<svg width="18" height="18" viewBox="0 0 18 18" fill="none" xmlns="http://www.w3.org/2000/svg">
<path fill-rule="evenodd" clip-rule="evenodd" d="M0.601095 0.032915C0.522893 0.0538447 0.380705 0.139787 0.285184 0.223927C-0.0280437 0.49977 -0.00593567 -0.0706597 0.00532904 7.44479L0.0153293 14.113L0.099853 14.2711C0.204837 14.4674 0.377333 14.6158 0.563047 14.6695C0.662208 14.6982 2.7384 14.7072 7.45181 14.6993L14.1986 14.688L14.3486 14.5832C14.4311 14.5256 14.5416 14.4147 14.5943 14.3369L14.6901 14.1953L14.7014 7.44591C14.7093 2.73074 14.7003 0.653715 14.6716 0.55451C14.618 0.36871 14.4696 0.196136 14.2734 0.0911042L14.1154 0.00654202L7.42935 0.000715418C3.10742 -0.00307953 0.693051 0.00830532 0.601095 0.032915ZM13.0906 7.35686L13.0809 13.078L7.3623 13.0877L1.64373 13.0975V7.36656V1.63569H7.37199H13.1003L13.0906 7.35686ZM15.5522 4.08899V4.89398H15.9545H16.3568V10.6247V16.3555H10.6287H4.90054V15.953V15.5505H4.09592H3.29129V16.4525C3.29129 17.18 3.30279 17.3821 3.35061 17.4966C3.42647 17.6783 3.53954 17.7985 3.73192 17.9021L3.88518 17.9846L10.5504 17.9946C18.066 18.0059 17.492 18.0283 17.7693 17.7131C17.8778 17.5898 17.9363 17.4789 17.9662 17.3395C17.9967 17.1974 18.0054 15.265 17.997 10.5097L17.9852 3.87816L17.9027 3.72482C17.7992 3.53236 17.679 3.41924 17.4974 3.34334C17.383 3.2955 17.181 3.284 16.4538 3.284H15.5522V4.08899ZM6.5481 5.14314V6.54229H5.14959H3.75108V7.36644V8.1906H5.14959H6.5481V9.58975V10.9889H7.37188H8.19566V9.58975V8.1906H9.59417H10.9927V7.36644V6.54229H9.59417H8.19566V5.14314V3.74399H7.37188H6.5481V5.14314Z" fill="white"/>
</svg>
