<svg width="48" height="48" viewBox="0 0 48 48" fill="none" xmlns="http://www.w3.org/2000/svg">
<rect opacity="0.1" width="48" height="48" rx="12" fill="#01BCA6"/>
<path opacity="0.4" fill-rule="evenodd" clip-rule="evenodd" d="M20.1838 15.3523H27.8621V13.5645H20.1838V15.3523ZM18.4371 13.6379V13.6468C17.8377 13.7013 17.2447 13.8203 16.6679 13.9995V13.9928C16.6507 14 16.6346 14.0055 16.6191 14.0109C16.5987 14.0179 16.5795 14.0245 16.5606 14.0339C16.5145 14.0451 16.4695 14.0618 16.4266 14.0829C16.3001 14.1241 16.1736 14.173 16.0545 14.2231C16.0229 14.2353 15.9913 14.2495 15.9596 14.2637C15.928 14.2779 15.8964 14.292 15.8648 14.3043C15.8213 14.3249 15.776 14.3474 15.7307 14.3699C15.6854 14.3924 15.6401 14.415 15.5967 14.4356L15.3822 14.559C15.3426 14.5793 15.3059 14.603 15.2684 14.6272C15.2461 14.6416 15.2236 14.6562 15.2 14.6703C14.8772 14.8783 14.5781 15.122 14.3079 15.399L14.2918 15.4157C14.2563 15.457 14.2209 15.4972 14.1861 15.5368C14.1272 15.6036 14.0697 15.669 14.0151 15.7361L13.999 15.7516C13.122 16.962 12.6823 18.4539 12.7585 19.9657V20.4452H14.4901V19.9613C14.4901 17.8542 15.1614 16.5426 16.655 15.8707C17.2254 15.6293 17.828 15.4802 18.4414 15.4257H18.4574V13.6457L18.4371 13.6379ZM33.9981 15.7296L34.0056 15.7452C34.8816 16.9567 35.3191 18.4497 35.2419 19.9616V20.4455H33.5113V19.9493C33.5478 19.0571 33.3687 18.1693 32.9891 17.3672C32.6246 16.6808 32.0413 16.1479 31.3368 15.8587C30.776 15.6173 30.182 15.4671 29.5762 15.4137V13.6426C30.1756 13.6982 30.7685 13.8162 31.3464 13.9953V13.9864C31.3789 14.0011 31.4037 14.0099 31.4462 14.0249L31.4537 14.0275C31.4734 14.0345 31.4918 14.0415 31.51 14.0484C31.5354 14.058 31.5603 14.0674 31.5877 14.0765C31.7062 14.1154 31.8171 14.1612 31.9312 14.2084L31.9512 14.2167C32.0038 14.2351 32.0534 14.2581 32.0981 14.2787C32.1126 14.2854 32.1265 14.2919 32.1399 14.2979C32.2343 14.339 32.3308 14.388 32.408 14.4291C32.4595 14.4559 32.5096 14.4844 32.5567 14.5113C32.5821 14.5258 32.6066 14.5397 32.6299 14.5526C32.6683 14.5738 32.7017 14.5965 32.7339 14.6184C32.7573 14.6343 32.7801 14.6498 32.8036 14.6639C33.1274 14.873 33.4298 15.1178 33.7032 15.3926L33.7129 15.4092C33.8137 15.5105 33.9091 15.6173 33.9981 15.7296Z" fill="#01BCA6"/>
<path d="M29.6252 12.3962V16.3356C29.6252 16.832 29.2225 17.234 28.7252 17.234C28.228 17.234 27.8252 16.832 27.8252 16.3356V12.4052C27.8207 11.9088 28.2212 11.5034 28.7185 11.5001C29.2157 11.4967 29.6219 11.8953 29.6252 12.3917V12.3962Z" fill="#01BCA6"/>
<path d="M20.175 12.4105V16.3401C20.175 16.8386 19.7718 17.2428 19.2744 17.2428C18.7771 17.2428 18.375 16.8386 18.375 16.3401V12.4105C18.375 11.912 18.7771 11.5089 19.2744 11.5089C19.7718 11.5089 20.175 11.912 20.175 12.4105Z" fill="#01BCA6"/>
<path fill-rule="evenodd" clip-rule="evenodd" d="M12.75 30.1381V20.4453H35.25V30.1381C35.25 34.3649 32.8895 36.5004 28.2114 36.5004H19.7779C15.1105 36.5004 12.75 34.3649 12.75 30.1381ZM17.8254 25.8339C17.8254 26.4204 18.2868 26.8961 18.8554 26.8961C19.4348 26.8961 19.8962 26.4093 19.8855 25.8229C19.8855 25.2364 19.4241 24.7606 18.8662 24.7606H18.8554C18.2868 24.7606 17.8254 25.2475 17.8254 25.8339ZM22.9649 25.8339C22.9649 26.4204 23.437 26.8961 24.0056 26.8961C24.5743 26.8961 25.0357 26.4204 25.0357 25.8229C25.0357 25.2475 24.5743 24.7717 24.0056 24.7606H23.9949C23.4262 24.7717 22.9649 25.2475 22.9649 25.8339ZM29.1453 26.8958C28.5766 26.8958 28.1152 26.42 28.1152 25.8336C28.1152 25.2472 28.5659 24.7714 29.1453 24.7714C29.7139 24.7714 30.1753 25.2472 30.1753 25.8336C30.1753 26.42 29.7139 26.8958 29.1453 26.8958ZM29.1443 31.4327C28.5756 31.4327 28.1142 30.9569 28.1035 30.3705C28.1035 29.7841 28.5649 29.3083 29.1336 29.3083H29.1443C29.713 29.3083 30.1743 29.7841 30.1743 30.3705C30.1743 30.9569 29.713 31.4327 29.1443 31.4327ZM24.0056 31.4323C23.4369 31.4323 22.9648 30.9565 22.9648 30.3701C22.9648 29.7836 23.4262 29.3078 23.9949 29.2968H24.0056C24.5743 29.3078 25.0249 29.7836 25.0357 30.359C25.0357 30.9565 24.5743 31.4323 24.0056 31.4323ZM18.8554 31.4323C18.2868 31.4323 17.8254 30.9565 17.8254 30.3701C17.8146 29.7836 18.276 29.2968 18.8554 29.2968C19.4241 29.2968 19.8855 29.7725 19.8855 30.359C19.8855 30.9454 19.4241 31.4323 18.8554 31.4323Z" fill="#01BCA6"/>
</svg>
