<svg width="136" height="39" viewBox="0 0 136 39" fill="none" xmlns="http://www.w3.org/2000/svg">
<path fill-rule="evenodd" clip-rule="evenodd" d="M11.4104 14.7288C12.8656 14.7288 14.0488 15.912 14.0488 17.3672C14.0488 18.8224 12.8656 20.0056 11.4104 20.0056C9.95519 20.0056 8.77199 18.8224 8.77199 17.3672C8.77199 15.912 9.95519 14.7288 11.4104 14.7288ZM15.6264 13.1512C17.9384 15.4632 17.9384 19.2576 15.6264 21.5832L11.4104 25.7992L7.1944 21.5832C4.8824 19.2712 4.8824 15.4768 7.1944 13.1512C9.51999 10.8392 13.3144 10.8392 15.6264 13.1512ZM11.4104 5.95679C15.028 5.95679 19.04 5.97039 22.8072 5.97039V16.8232V16.796C22.8208 16.9864 22.8208 17.1768 22.8208 17.3808C22.8208 23.6912 17.7072 28.7912 11.4104 28.7912C5.1136 28.7912 0 23.6776 0 17.3672C0 11.0704 5.1136 5.95679 11.4104 5.95679Z" fill="#01BCA6"/>
<path fill-rule="evenodd" clip-rule="evenodd" d="M11.4106 38.4062C16.9594 38.4062 21.5698 34.4486 22.6034 29.2126H16.9322C16.0482 31.4022 13.913 32.9526 11.397 32.9526C8.89457 32.9526 6.74577 31.4022 5.86177 29.2126H0.217773C1.25137 34.4622 5.86177 38.4062 11.4106 38.4062Z" fill="#01BCA6"/>
<path fill-rule="evenodd" clip-rule="evenodd" d="M62.6006 5.95679H67.8774V11.2472L62.6006 5.95679Z" fill="#01BCA6"/>
<path fill-rule="evenodd" clip-rule="evenodd" d="M75.8876 12.6072C75.8876 13.1784 76.2684 13.6408 77.0164 13.9944C77.7644 14.348 78.6892 14.6608 79.7636 14.9328C80.838 15.2048 81.926 15.5448 83.0004 15.9528C84.0748 16.3608 84.9996 17.0544 85.7476 18.02C86.4956 18.9856 86.8764 20.196 86.8764 21.6376C86.8764 23.8272 86.0604 25.5136 84.4284 26.6832C82.7964 27.8664 80.7564 28.4512 78.322 28.4512C73.9428 28.4512 70.9644 26.7648 69.3732 23.3784L74.1468 20.6992C74.7724 22.5488 76.1596 23.4736 78.322 23.4736C80.2804 23.4736 81.2596 22.8616 81.2596 21.6376C81.2596 21.0664 80.8788 20.604 80.1308 20.2504C79.3828 19.8968 78.458 19.5704 77.3836 19.2984C76.3092 19.0128 75.2212 18.6592 74.1468 18.2376C73.0724 17.816 72.1476 17.136 71.3996 16.2112C70.6516 15.2864 70.2708 14.1304 70.2708 12.7432C70.2708 10.6352 71.046 8.9896 72.5964 7.7792C74.1468 6.5688 76.0644 5.9704 78.3628 5.9704C80.09 5.9704 81.6676 6.3648 83.0956 7.14C84.51 7.91519 85.6388 9.03039 86.4548 10.4856L81.7628 13.0424C81.0828 11.5872 79.9404 10.8664 78.3492 10.8664C77.642 10.8664 77.0436 11.0296 76.5812 11.3288C76.1188 11.6416 75.8876 12.0632 75.8876 12.6072ZM32.9116 17.3672C32.9116 20.6584 35.5772 23.324 38.8684 23.324C42.1596 23.324 44.8252 20.6584 44.8252 17.3672C44.8252 14.076 42.1596 11.4104 38.8684 11.4104C35.5772 11.4104 32.9116 14.076 32.9116 17.3672ZM62.6004 11.2472V20.1144C62.6004 20.8488 62.7908 21.3928 63.158 21.7328C63.5252 22.0728 64.0692 22.2632 64.7764 22.304C65.4836 22.3448 66.3676 22.3448 67.4148 22.2768V27.2544C63.634 27.676 60.9684 27.3224 59.4316 26.1936C57.8812 25.0512 57.106 23.0248 57.106 20.1008V11.2336H53.3932V5.9568H57.106V1.6592L62.6004 0V5.9704V11.2472ZM38.8684 5.9568C41.058 5.9568 43.098 6.5688 44.8252 7.6296V5.9568H50.2788V17.3672V28.7776H44.8252V27.1048C43.0844 28.1656 41.058 28.7776 38.8684 28.7776C32.5716 28.7776 27.458 23.664 27.458 17.3672C27.458 11.0704 32.558 5.9568 38.8684 5.9568ZM95.8388 17.3672C95.8388 20.6584 98.5043 23.324 101.796 23.324C105.087 23.324 107.752 20.6584 107.752 17.3672C107.752 14.076 105.087 11.4104 101.796 11.4104C98.5043 11.4104 95.8388 14.076 95.8388 17.3672ZM101.796 5.9568C108.106 5.9568 113.206 11.0704 113.206 17.3672C113.206 23.6776 108.092 28.7776 101.796 28.7776C99.6195 28.7776 97.566 28.1656 95.8388 27.1048V28.7776H90.3852V17.3672V14.3888V0H95.8388V7.6432C97.566 6.5688 99.6059 5.9568 101.796 5.9568ZM118.7 38.3656H124.208C128.139 27.5672 132.069 16.7688 136 5.9568H130.124L125.405 20.2776L119.856 5.9568H113.845L122.576 26.5744C121.284 30.5048 119.992 34.4352 118.7 38.3656Z" fill="#333333"/>
</svg>
