<svg width="48" height="48" viewBox="0 0 48 48" fill="none" xmlns="http://www.w3.org/2000/svg">
<rect opacity="0.12" width="48" height="48" rx="12" fill="#01BCA6"/>
<path fill-rule="evenodd" clip-rule="evenodd" d="M19.6645 12.671C22.3956 11.0841 25.7525 11.1118 28.458 12.7436C31.1368 14.4086 32.765 17.3802 32.7498 20.5768C32.6874 23.7524 30.9416 26.7375 28.7593 29.0451C27.4998 30.383 26.0908 31.566 24.5611 32.57C24.4035 32.6611 24.2309 32.7221 24.0519 32.75C23.8795 32.7427 23.7116 32.6917 23.5634 32.6018C21.228 31.0932 19.1792 29.1675 17.5154 26.9175C16.1232 25.0392 15.3323 22.77 15.25 20.418C15.2482 17.2153 16.9335 14.2578 19.6645 12.671ZM21.2429 21.7432C21.7023 22.8757 22.7867 23.6145 23.9897 23.6145C24.7778 23.6202 25.5354 23.3045 26.0937 22.7378C26.652 22.1711 26.9646 21.4005 26.9618 20.5977C26.966 19.3722 26.2445 18.2651 25.1343 17.7932C24.024 17.3212 22.744 17.5776 21.8918 18.4426C21.0397 19.3076 20.7835 20.6106 21.2429 21.7432Z" fill="#01BCA6"/>
<path opacity="0.4" d="M24 36.5C27.4518 36.5 30.25 35.9404 30.25 35.25C30.25 34.5596 27.4518 34 24 34C20.5482 34 17.75 34.5596 17.75 35.25C17.75 35.9404 20.5482 36.5 24 36.5Z" fill="#01BCA6"/>
</svg>
